<svg width="128" height="128" viewBox="0 0 128 128" fill="none" xmlns="http://www.w3.org/2000/svg">
  <!-- 背景圆形 -->
  <circle cx="64" cy="64" r="64" fill="#1f2937"/>
  
  <!-- 导航图标 -->
  <g transform="translate(32, 32)">
    <!-- 圆形背景 -->
    <circle cx="32" cy="32" r="24" fill="#3b82f6" opacity="0.2"/>
    
    <!-- 网格图标 -->
    <rect x="16" y="16" width="8" height="8" rx="2" fill="#60a5fa"/>
    <rect x="28" y="16" width="8" height="8" rx="2" fill="#60a5fa"/>
    <rect x="40" y="16" width="8" height="8" rx="2" fill="#60a5fa"/>
    
    <rect x="16" y="28" width="8" height="8" rx="2" fill="#3b82f6"/>
    <rect x="28" y="28" width="8" height="8" rx="2" fill="#3b82f6"/>
    <rect x="40" y="28" width="8" height="8" rx="2" fill="#3b82f6"/>
    
    <rect x="16" y="40" width="8" height="8" rx="2" fill="#1d4ed8"/>
    <rect x="28" y="40" width="8" height="8" rx="2" fill="#1d4ed8"/>
    <rect x="40" y="40" width="8" height="8" rx="2" fill="#1d4ed8"/>
  </g>
  
  <!-- 加号图标 -->
  <g transform="translate(80, 80)">
    <circle cx="16" cy="16" r="16" fill="#10b981"/>
    <path d="M16 8v16M8 16h16" stroke="white" stroke-width="2" stroke-linecap="round"/>
  </g>
</svg>